<?xml version="1.0" encoding="utf-8"?>
<!-- Generator: Adobe Illustrator 16.0.0, SVG Export Plug-In . SVG Version: 6.00 Build 0)  -->
<!DOCTYPE svg PUBLIC "-//W3C//DTD SVG 1.1//EN" "http://www.w3.org/Graphics/SVG/1.1/DTD/svg11.dtd">
<svg version="1.1" id="Ebene_1" xmlns="http://www.w3.org/2000/svg" xmlns:xlink="http://www.w3.org/1999/xlink" x="0px" y="0px"
	 width="100px" height="100px" viewBox="0 0 100 100" enable-background="new 0 0 100 100" xml:space="preserve">
<path d="M54.187,44.025L17.04,81.144c-1.345,1.34-1.342,3.518-0.003,4.856c1.343,1.349,3.52,1.346,4.862,0.007l37.145-37.121
	c0.195-0.193,0.301-0.435,0.436-0.658c2.104,1.249,4.479,1.96,6.988,1.96c0.004,0.002,0.004,0.002,0.004,0.002
	c3.627,0,7.053-1.395,9.644-3.928c0.007-0.004,0.007-0.01,0.015-0.015l0.004,0.003l11.48-11.472l-0.03-0.028l1.614-1.614
	c1.071-1.067,1.067-2.798,0.004-3.864c-1.07-1.069-2.795-1.067-3.861-0.001l-1.615,1.614l-0.017-0.017L71.955,42.608
	c-1.059,1.055-2.77,1.053-3.826-0.002c-1.054-1.055-1.05-2.768,0.004-3.827l13.414-13.403c1.007-1.067,1-2.742-0.044-3.785
	c-1.028-1.032-2.671-1.043-3.74-0.083L64.308,34.954c-1.055,1.055-2.766,1.055-3.821,0c-1.059-1.055-1.056-2.77,0-3.827
	l13.253-13.246c1.054-1.15,1.043-2.92-0.067-4.035c-1.145-1.144-3-1.144-4.144-0.002L56.805,26.561
	c-0.01,0.012-0.014,0.029-0.023,0.042l-0.118,0.115c-0.013,0.012-0.033,0.008-0.046,0.021c-4.497,4.602-5.085,11.626-1.839,16.895
	C54.577,43.762,54.361,43.851,54.187,44.025z"/>
<path d="M13.506,34.953l0.054,0.065l4.134,4.552l6.761,7.438c0.01,0.017,0.007,0.037,0.017,0.05
	c4.345,4.667,11.237,5.601,16.632,2.708l4.879-4.88L19.449,15.672c-1.271-1.404-3.446-1.511-4.849-0.233
	c-0.033,0.027-0.04,0.062-0.07,0.09c-0.01,0.007-0.02,0.014-0.03,0.021c-5.567,5.06-6.033,13.752-1.041,19.38
	C13.473,34.944,13.493,34.942,13.506,34.953z"/>
<path d="M52.704,62.499l20.703,22.789c1.274,1.402,3.445,1.511,4.853,0.231c1.404-1.278,1.507-3.446,0.231-4.848L57.569,57.637
	L52.704,62.499z"/>
</svg>
