<?xml version="1.0" encoding="utf-8"?>
<!-- Generator: Adobe Illustrator 16.0.0, SVG Export Plug-In . SVG Version: 6.00 Build 0)  -->
<!DOCTYPE svg PUBLIC "-//W3C//DTD SVG 1.1//EN" "http://www.w3.org/Graphics/SVG/1.1/DTD/svg11.dtd">
<svg version="1.1" id="Your_Icon" xmlns="http://www.w3.org/2000/svg" xmlns:xlink="http://www.w3.org/1999/xlink" x="0px" y="0px"
	 width="100px" height="100px" viewBox="0 0 100 100" enable-background="new 0 0 100 100" xml:space="preserve">
<path fill="#FFFFFF" d="M88.407,82.898v0.295c0,0.15-0.04,0.298-0.119,0.425l-1.821,2.987c-0.148,0.252-0.419,0.394-0.693,0.394
	c-0.133,0-0.26-0.03-0.383-0.097l-5.242-2.793l-5.69,2.806c-0.229,0.112-0.498,0.11-0.728-0.004l-5.545-2.804l-5.494,2.802
	c-0.271,0.141-0.6,0.114-0.846-0.063l-5.662-4.058h-0.066l-6.34,2.782c-0.205,0.091-0.439,0.093-0.646,0.005l-6.569-2.787H42.48
	l-5.665,4.058c-0.283,0.204-0.661,0.204-0.943,0.006l-3.793-2.67l-4.085,2.686c-0.294,0.189-0.679,0.174-0.956-0.045l-2.658-2.117
	l-3.586-1.73l-6.68,1.822c-0.377,0.104-0.772-0.076-0.945-0.424l-0.786-1.584c-1.689,0.014-3.056,1.387-3.056,3.08v2.4
	c0,3.602,2.919,6.52,6.521,6.52H84.15c3.602,0,6.521-2.918,6.521-6.52v-2.4C90.672,84.447,89.714,83.257,88.407,82.898z"/>
<path fill="#FFFFFF" d="M20.659,81.32c0.19-0.051,0.392-0.034,0.569,0.054l3.943,1.901c0.055,0.025,0.106,0.06,0.154,0.097
	l2.267,1.806l4.056-2.662c0.28-0.185,0.643-0.179,0.917,0.014l3.772,2.656l5.594-4.013c0.232-0.164,0.532-0.196,0.794-0.086
	l6.718,2.851l6.483-2.849c0.266-0.112,0.569-0.084,0.805,0.084l5.662,4.06l5.42-2.764c0.119-0.06,0.244-0.089,0.371-0.089
	s0.252,0.029,0.366,0.086l5.552,2.808l5.701-2.81c0.235-0.116,0.512-0.112,0.743,0.013l4.931,2.627l1.301-2.138v-3.03H12.788
	l1.544,3.112L20.659,81.32z"/>
<path fill="#FFFFFF" d="M89.738,66.118h-2.729c-8.61,0.22-17.853,8.739-17.946,8.827c-0.15,0.142-0.351,0.22-0.556,0.22
	c-0.028,0-0.058-0.002-0.085-0.006c-0.236-0.022-0.447-0.147-0.583-0.345c-4.667-6.686-39.93-8.521-54.459-8.696h-3.117
	c-2.812,0-5.09,2.276-5.09,5.092v1.933c0,2.812,2.278,5.092,5.09,5.092h79.475c2.812,0,5.089-2.279,5.089-5.092V71.21
	C94.827,68.396,92.55,66.118,89.738,66.118z"/>
<path fill="#FFFFFF" d="M68.589,73.186c2.267-1.965,10.112-8.266,17.942-8.687v-1.29H13.169v1.277
	C19.711,64.57,60.871,65.412,68.589,73.186z"/>
<path fill="#FFFFFF" d="M89.738,32.676h-2.729c-8.61,0.22-17.853,8.74-17.946,8.828c-0.15,0.141-0.351,0.219-0.556,0.219
	c-0.028,0-0.058-0.002-0.085-0.006c-0.236-0.023-0.447-0.148-0.583-0.344c-4.667-6.686-39.93-8.521-54.459-8.697h-3.117
	c-2.812,0-5.09,2.277-5.09,5.092V39.7c0,2.812,2.278,5.092,5.09,5.092h79.475c2.812,0,5.089-2.279,5.089-5.092v-1.932
	C94.827,34.953,92.55,32.676,89.738,32.676z"/>
<path fill="#FFFFFF" d="M68.589,39.742c2.267-1.965,10.112-8.265,17.942-8.686v-1.29H13.169v1.278
	C19.711,31.129,60.871,31.97,68.589,39.742z"/>
<path fill="#FFFFFF" d="M10.262,49.428h2.729c8.611,0.221,17.853,8.741,17.946,8.829c0.151,0.142,0.351,0.22,0.556,0.22
	c0.028,0,0.058-0.002,0.085-0.006c0.236-0.023,0.447-0.148,0.583-0.345c4.667-6.687,39.93-8.521,54.459-8.698h3.116
	c2.812,0,5.091,2.278,5.091,5.093v1.932c0,2.812-2.278,5.092-5.091,5.092H10.262c-2.812,0-5.089-2.279-5.089-5.092v-1.932
	C5.173,51.706,7.45,49.428,10.262,49.428z"/>
<path fill="#FFFFFF" d="M31.411,56.495c-2.266-1.966-10.112-8.266-17.942-8.686v-1.29H86.83v1.277
	C80.289,47.881,39.129,48.723,31.411,56.495z"/>
<path fill="#FFFFFF" d="M49.308,5.212c-21.327,0-40.672,11.494-40.672,17.502c0,0.695,0,2.399,0,2.399
	c0,1.702,1.378,3.082,3.08,3.082H86.9c1.701,0,3.08-1.38,3.08-3.082c0,0,0-1.283,0-2.399C89.979,16.706,70.634,5.212,49.308,5.212z
	 M55.406,12.236c0-0.857,1.216-1.553,2.717-1.553c1.5,0,2.718,0.695,2.718,1.553c0,0.858-1.218,1.553-2.718,1.553
	C56.622,13.789,55.406,13.094,55.406,12.236z M61.609,21.086c-1.5,0-2.717-0.694-2.717-1.552s1.217-1.553,2.717-1.553
	s2.717,0.695,2.717,1.553S63.109,21.086,61.609,21.086z M74.107,19.534c-1.5,0-2.717-0.695-2.717-1.553s1.217-1.553,2.717-1.553
	s2.717,0.695,2.717,1.553S75.607,19.534,74.107,19.534z"/>
</svg>
