<?xml version="1.0" encoding="utf-8"?>
<!-- Generator: Adobe Illustrator 16.0.0, SVG Export Plug-In . SVG Version: 6.00 Build 0)  -->
<!DOCTYPE svg PUBLIC "-//W3C//DTD SVG 1.1//EN" "http://www.w3.org/Graphics/SVG/1.1/DTD/svg11.dtd">
<svg version="1.1" id="Your_Icon" xmlns="http://www.w3.org/2000/svg" xmlns:xlink="http://www.w3.org/1999/xlink" x="0px" y="0px"
	 width="100px" height="100px" viewBox="0 0 100 100" enable-background="new 0 0 100 100" xml:space="preserve">
<path fill="#FFFFFF" d="M88.407,65.996v0.295c0,0.15-0.04,0.297-0.119,0.424l-1.821,2.988c-0.148,0.252-0.419,0.393-0.693,0.393
	c-0.133,0-0.26-0.031-0.383-0.096l-5.242-2.793l-5.69,2.805c-0.229,0.113-0.498,0.111-0.728-0.004l-5.545-2.803l-5.494,2.801
	c-0.271,0.141-0.6,0.115-0.846-0.064l-5.662-4.057h-0.066l-6.34,2.783c-0.205,0.09-0.439,0.092-0.646,0.004l-6.569-2.787H42.48
	l-5.665,4.057c-0.283,0.205-0.661,0.205-0.943,0.006l-3.793-2.67l-4.085,2.687c-0.294,0.188-0.679,0.175-0.956-0.045l-2.658-2.116
	l-3.586-1.73l-6.68,1.822c-0.377,0.104-0.772-0.076-0.945-0.424l-0.786-1.584c-1.689,0.014-3.056,1.387-3.056,3.079v2.399
	c0,3.604,2.919,6.521,6.521,6.521H84.15c3.602,0,6.521-2.918,6.521-6.521v-2.399C90.672,67.545,89.714,66.354,88.407,65.996z"/>
<path fill="#FFFFFF" d="M20.659,64.418c0.19-0.051,0.392-0.035,0.569,0.053l3.943,1.902c0.055,0.025,0.106,0.059,0.154,0.096
	l2.267,1.805l4.056-2.662c0.28-0.184,0.643-0.178,0.917,0.015l3.772,2.655l5.594-4.012c0.232-0.164,0.532-0.197,0.794-0.086
	l6.718,2.851l6.483-2.849c0.266-0.113,0.569-0.084,0.805,0.084l5.662,4.06l5.42-2.765c0.119-0.059,0.244-0.088,0.371-0.088
	s0.252,0.029,0.366,0.086l5.552,2.808l5.701-2.81c0.235-0.117,0.512-0.113,0.743,0.012l4.931,2.628l1.301-2.138v-3.031H12.788
	l1.544,3.113L20.659,64.418z"/>
<path fill="#FFFFFF" d="M89.738,49.636h-2.729c-8.61,0.22-17.853,8.741-17.946,8.829c-0.15,0.141-0.351,0.219-0.556,0.219
	c-0.028,0-0.058-0.002-0.085-0.006c-0.236-0.023-0.447-0.148-0.583-0.344c-4.667-6.686-39.93-8.521-54.459-8.698h-3.117
	c-2.812,0-5.09,2.278-5.09,5.092v1.932c0,2.812,2.278,5.092,5.09,5.092h79.475c2.812,0,5.089-2.279,5.089-5.092v-1.932
	C94.827,51.914,92.55,49.636,89.738,49.636z"/>
<path fill="#FFFFFF" d="M68.589,56.703c2.267-1.965,10.112-8.265,17.942-8.686v-1.29H13.169v1.278
	C19.711,48.089,60.871,48.931,68.589,56.703z"/>
<path fill="#FFFFFF" d="M49.308,22.115c-21.327,0-40.672,11.495-40.672,17.502c0,0.695,0,2.399,0,2.399
	c0,1.702,1.378,3.082,3.08,3.082H86.9c1.701,0,3.08-1.38,3.08-3.082c0,0,0-1.284,0-2.399C89.979,33.609,70.634,22.115,49.308,22.115
	z M55.406,29.14c0-0.857,1.216-1.553,2.717-1.553c1.5,0,2.718,0.695,2.718,1.553c0,0.858-1.218,1.552-2.718,1.552
	C56.622,30.692,55.406,29.997,55.406,29.14z M61.609,37.989c-1.5,0-2.717-0.695-2.717-1.552s1.217-1.552,2.717-1.552
	s2.717,0.695,2.717,1.552S63.109,37.989,61.609,37.989z M74.107,36.437c-1.5,0-2.717-0.695-2.717-1.552
	c0-0.857,1.217-1.553,2.717-1.553s2.717,0.695,2.717,1.553C76.824,35.743,75.607,36.437,74.107,36.437z"/>
</svg>
